<svg width="128" height="24" viewBox="0 0 128 24" fill="none" xmlns="http://www.w3.org/2000/svg" role="img" aria-label="Offsend">
  <g transform="translate(0,1.2) scale(0.98)">
    <path d="M12.2762 21.6059H8.83889L8.83889 0L12.2762 0L12.2762 21.6059Z" fill="#030303"/>
    <path d="M4.1457 1.33931L12.2244 10.8029L4.1457 20.2665L1.53127 18.0348L7.7048 10.8029L1.53128 3.57106L4.1457 1.33931Z" fill="#030303"/>
    <path d="M0.000227745 9.08408L9.96447 9.08414L9.96472 12.5215L2.04891e-07 12.5214L0.000227745 9.08408Z" fill="#030303"/>
    <path d="M19.0707 10.803C19.0707 9.50484 18.6004 8.2567 17.7573 7.299L17.5842 7.1115C16.6323 6.13242 15.341 5.58226 13.9948 5.58226V1.96417C16.2739 1.96417 18.4595 2.89559 20.071 4.55318C21.6826 6.21077 22.5881 8.45877 22.5881 10.803L22.5852 11.0226C22.5306 13.2872 21.6322 15.447 20.071 17.0527C18.4595 18.7103 16.2739 19.6417 13.9948 19.6417V16.0237C15.2568 16.0236 16.4704 15.5404 17.4015 14.6733L17.5842 14.4944C18.4764 13.5766 19.0022 12.3522 19.0645 11.0619L19.0707 10.803Z" fill="#030303"/>
  </g>
  <g transform="translate(32,2.4)">
    <path d="M7.18048 19.06C5.73735 19.06 4.479 18.7608 3.40545 18.1624C2.3319 17.5464 1.49593 16.6841 0.897561 15.5753C0.299187 14.4666 0 13.1642 0 11.6683C0 10.1724 0.299187 8.87882 0.897561 7.78766C1.49593 6.67891 2.3319 5.81655 3.40545 5.20058C4.479 4.5846 5.73735 4.27661 7.18048 4.27661C8.62362 4.27661 9.88197 4.5846 10.9555 5.20058C12.0291 5.81655 12.865 6.67891 13.4634 7.78766C14.0618 8.87882 14.361 10.1724 14.361 11.6683C14.361 13.1642 14.0618 14.4666 13.4634 15.5753C12.865 16.6841 12.0291 17.5464 10.9555 18.1624C9.88197 18.7608 8.62362 19.06 7.18048 19.06ZM7.18048 16.0241C8.16604 16.0241 8.93161 15.6457 9.47719 14.889C10.0228 14.1146 10.2955 13.041 10.2955 11.6683C10.2955 10.2956 10.0228 9.2308 9.47719 8.47403C8.93161 7.69967 8.16604 7.31248 7.18048 7.31248C6.19493 7.31248 5.42936 7.69967 4.88379 8.47403C4.33821 9.2308 4.06542 10.2956 4.06542 11.6683C4.06542 13.041 4.33821 14.1146 4.88379 14.889C5.42936 15.6457 6.19493 16.0241 7.18048 16.0241Z" fill="#030303"/>
    <path d="M15.9684 18.7432V4.40861C15.9684 3.01827 16.3468 1.93592 17.1036 1.16155C17.8603 0.387184 19.0307 9.53674e-07 20.6146 9.53674e-07H23.6505V2.95667H21.4858C20.9402 2.95667 20.5442 3.09747 20.2978 3.37905C20.0514 3.64304 19.9282 4.04782 19.9282 4.5934V18.7432H15.9684ZM13.9093 7.55007V4.5934H23.4393V7.55007H13.9093ZM25.1552 18.7432V4.40861C25.1552 3.01827 25.5336 1.93592 26.2904 1.16155C27.0471 0.387184 28.2175 9.53674e-07 29.8014 9.53674e-07H32.8373V2.95667H30.6726C30.127 2.95667 29.731 3.09747 29.4846 3.37905C29.2382 3.64304 29.115 4.04782 29.115 4.5934V18.7432H25.1552ZM23.0961 7.55007V4.5934H32.6261V7.55007H23.0961Z" fill="#030303"/>
    <path d="M38.6143 19.06C37.0832 19.06 35.8248 18.8576 34.8393 18.4528C33.8713 18.0304 33.1409 17.4672 32.6481 16.7633C32.1554 16.0417 31.8738 15.2145 31.8034 14.2818L35.816 14.1498C35.9392 14.8186 36.212 15.3377 36.6344 15.7073C37.0568 16.0769 37.7167 16.2617 38.6143 16.2617C39.3183 16.2617 39.855 16.1473 40.2246 15.9185C40.6118 15.6721 40.8054 15.3113 40.8054 14.8362C40.8054 14.537 40.735 14.2906 40.5942 14.097C40.4534 13.9034 40.1806 13.7362 39.7758 13.5954C39.3711 13.437 38.7727 13.2962 37.9807 13.173C36.5024 12.909 35.3408 12.6011 34.4961 12.2491C33.6689 11.8795 33.0793 11.4219 32.7273 10.8763C32.393 10.3132 32.2258 9.62678 32.2258 8.81722C32.2258 7.46208 32.7537 6.37092 33.8097 5.54376C34.8657 4.699 36.4408 4.27661 38.5351 4.27661C39.9606 4.27661 41.1222 4.48781 42.0197 4.91019C42.9349 5.33257 43.6213 5.91334 44.0788 6.65251C44.554 7.39168 44.8268 8.21884 44.8972 9.134L40.9374 9.2924C40.9198 8.85242 40.8142 8.46523 40.6206 8.13085C40.4446 7.79646 40.1806 7.54127 39.8286 7.36528C39.4766 7.17169 39.0279 7.07489 38.4823 7.07489C37.7783 7.07489 37.2415 7.22449 36.872 7.52367C36.5024 7.80526 36.3176 8.18365 36.3176 8.65882C36.3176 9.01081 36.388 9.3012 36.5288 9.52999C36.6872 9.74118 36.9512 9.91717 37.3207 10.058C37.7079 10.1988 38.2183 10.3132 38.8519 10.4011C40.3478 10.6123 41.5358 10.9027 42.4157 11.2723C43.2957 11.6419 43.9205 12.1171 44.29 12.6978C44.6772 13.261 44.8708 13.9562 44.8708 14.7834C44.8708 16.1561 44.3076 17.2121 43.1813 17.9512C42.0725 18.6904 40.5502 19.06 38.6143 19.06Z" fill="#030303"/>
    <path d="M51.8809 19.06C50.4378 19.06 49.1795 18.7608 48.1059 18.1624C47.05 17.5464 46.2228 16.6841 45.6244 15.5753C45.0436 14.4666 44.7533 13.1642 44.7533 11.6683C44.7533 10.1724 45.0436 8.87882 45.6244 7.78766C46.2228 6.67891 47.05 5.81655 48.1059 5.20058C49.1619 4.5846 50.4114 4.27661 51.8545 4.27661C53.2625 4.27661 54.4856 4.5846 55.524 5.20058C56.5623 5.81655 57.3631 6.69651 57.9263 7.84046C58.5071 8.98441 58.7974 10.3484 58.7974 11.9323V12.7242H48.8451C48.8979 13.8506 49.1971 14.6866 49.7426 15.2321C50.3058 15.7777 51.045 16.0505 51.9601 16.0505C52.6289 16.0505 53.1833 15.9097 53.6233 15.6281C54.0808 15.3465 54.4064 14.9154 54.6 14.3346L58.5862 14.5722C58.2167 15.9801 57.4335 17.0801 56.2368 17.872C55.04 18.664 53.5881 19.06 51.8809 19.06ZM48.8451 10.2956H54.732C54.6792 9.2572 54.3888 8.48283 53.8609 7.97245C53.3505 7.46208 52.6817 7.20689 51.8545 7.20689C51.0274 7.20689 50.341 7.47968 49.7954 8.02525C49.2675 8.55323 48.9507 9.31 48.8451 10.2956Z" fill="#030303"/>
    <path d="M59.3968 18.7432V4.5934H62.9606L63.119 8.73802L62.6174 8.60603C62.7582 7.55007 63.0398 6.70531 63.4622 6.07174C63.9022 5.43816 64.4478 4.98058 65.0989 4.699C65.7501 4.41741 66.4629 4.27661 67.2372 4.27661C68.258 4.27661 69.1203 4.49661 69.8243 4.93659C70.5459 5.37657 71.0915 6.00134 71.461 6.8109C71.8482 7.60287 72.0418 8.54443 72.0418 9.63558V18.7432H68.082V10.9555C68.082 10.1988 68.0204 9.55638 67.8972 9.02841C67.774 8.50043 67.554 8.10445 67.2372 7.84046C66.9204 7.55887 66.4805 7.41808 65.9173 7.41808C65.0901 7.41808 64.4566 7.72607 64.0166 8.34204C63.5766 8.94041 63.3566 9.81157 63.3566 10.9555V18.7432H59.3968Z" fill="#030303"/>
    <path d="M78.3942 19.06C77.1975 19.06 76.1591 18.7608 75.2792 18.1624C74.4168 17.5464 73.7481 16.6929 73.2729 15.6017C72.8153 14.493 72.5865 13.1818 72.5865 11.6683C72.5865 10.1548 72.8241 8.85242 73.2993 7.76126C73.7744 6.65251 74.4432 5.79895 75.3056 5.20058C76.1855 4.5846 77.2151 4.27661 78.3942 4.27661C79.3974 4.27661 80.2598 4.48781 80.9813 4.91019C81.7205 5.31497 82.2749 5.87815 82.6445 6.59971V9.53674e-07H86.6043V18.7432H82.8292L82.7501 16.6577C82.3629 17.4144 81.7821 18.004 81.0077 18.4264C80.251 18.8488 79.3798 19.06 78.3942 19.06ZM79.6878 16.0241C80.3214 16.0241 80.8581 15.8569 81.2981 15.5225C81.7381 15.1881 82.0725 14.7042 82.3013 14.0706C82.5301 13.4194 82.6445 12.6187 82.6445 11.6683C82.6445 10.7003 82.5301 9.89957 82.3013 9.266C82.0725 8.61483 81.7381 8.13085 81.2981 7.81406C80.8581 7.47968 80.3214 7.31248 79.6878 7.31248C78.755 7.31248 78.0159 7.70847 77.4703 8.50043C76.9247 9.2748 76.6519 10.3308 76.6519 11.6683C76.6519 12.9882 76.9247 14.0442 77.4703 14.8362C78.0335 15.6281 78.7726 16.0241 79.6878 16.0241Z" fill="#030303"/>
  </g>
</svg>
